<mxfile host="drawio-plugin" modified="2023-05-24T08:15:57.407Z" agent="5.0 (X11; Linux x86_64) AppleWebKit/537.36 (KHTML, like Gecko) Chrome/104.0.5112.102 Safari/537.36" etag="0aBSBgWiLUryRsYPQEXS" version="20.5.3" type="embed"><diagram name="Page-1" id="BVZh3s7B60hCzrY8_iOY"><mxGraphModel dx="1302" dy="279" grid="1" gridSize="10" guides="1" tooltips="1" connect="1" arrows="1" fold="1" page="1" pageScale="1" pageWidth="850" pageHeight="1100" math="1" shadow="0"><root><mxCell id="0"/><mxCell id="1" parent="0"/><mxCell id="qTOa6XwQqx_HcVTNTbXX-4" style="edgeStyle=orthogonalEdgeStyle;rounded=0;orthogonalLoop=1;jettySize=auto;html=1;entryX=0;entryY=0.25;entryDx=0;entryDy=0;" parent="1" source="qTOa6XwQqx_HcVTNTbXX-1" target="qTOa6XwQqx_HcVTNTbXX-3" edge="1"><mxGeometry relative="1" as="geometry"/></mxCell><mxCell id="qTOa6XwQqx_HcVTNTbXX-1" value="Pc1" style="rounded=0;whiteSpace=wrap;html=1;" parent="1" vertex="1"><mxGeometry x="190" y="10" width="120" height="60" as="geometry"/></mxCell><mxCell id="qTOa6XwQqx_HcVTNTbXX-5" style="edgeStyle=orthogonalEdgeStyle;rounded=0;orthogonalLoop=1;jettySize=auto;html=1;entryX=-0.011;entryY=0.679;entryDx=0;entryDy=0;entryPerimeter=0;" parent="1" source="qTOa6XwQqx_HcVTNTbXX-2" target="qTOa6XwQqx_HcVTNTbXX-3" edge="1"><mxGeometry relative="1" as="geometry"/></mxCell><mxCell id="qTOa6XwQqx_HcVTNTbXX-2" value="Rigid Flow" style="rounded=0;whiteSpace=wrap;html=1;" parent="1" vertex="1"><mxGeometry x="190" y="110" width="120" height="60" as="geometry"/></mxCell><mxCell id="qTOa6XwQqx_HcVTNTbXX-6" value="Transformation&lt;br&gt;Matrix" style="edgeStyle=orthogonalEdgeStyle;rounded=0;orthogonalLoop=1;jettySize=auto;html=1;entryX=0.699;entryY=1.012;entryDx=0;entryDy=0;entryPerimeter=0;" parent="1" source="qTOa6XwQqx_HcVTNTbXX-3" target="qTOa6XwQqx_HcVTNTbXX-2" edge="1"><mxGeometry x="-0.2411" y="-20" relative="1" as="geometry"><mxPoint x="660" y="100" as="targetPoint"/><Array as="points"><mxPoint x="490" y="240"/><mxPoint x="274" y="240"/></Array><mxPoint as="offset"/></mxGeometry></mxCell><mxCell id="qTOa6XwQqx_HcVTNTbXX-12" style="edgeStyle=orthogonalEdgeStyle;rounded=0;orthogonalLoop=1;jettySize=auto;html=1;entryX=0.5;entryY=0;entryDx=0;entryDy=0;" parent="1" source="qTOa6XwQqx_HcVTNTbXX-3" target="qTOa6XwQqx_HcVTNTbXX-11" edge="1"><mxGeometry relative="1" as="geometry"><Array as="points"><mxPoint x="490" y="290"/><mxPoint x="490" y="290"/></Array></mxGeometry></mxCell><mxCell id="qTOa6XwQqx_HcVTNTbXX-3" value="Kabsch" style="rounded=1;whiteSpace=wrap;html=1;" parent="1" vertex="1"><mxGeometry x="430" y="70" width="120" height="60" as="geometry"/></mxCell><mxCell id="qTOa6XwQqx_HcVTNTbXX-8" style="edgeStyle=orthogonalEdgeStyle;rounded=0;orthogonalLoop=1;jettySize=auto;html=1;entryX=0.25;entryY=1;entryDx=0;entryDy=0;fillColor=#f8cecc;strokeColor=#b85450;" parent="1" source="qTOa6XwQqx_HcVTNTbXX-7" target="qTOa6XwQqx_HcVTNTbXX-2" edge="1"><mxGeometry relative="1" as="geometry"><Array as="points"><mxPoint x="220" y="260"/></Array></mxGeometry></mxCell><mxCell id="qTOa6XwQqx_HcVTNTbXX-7" value="NN&lt;br&gt;&amp;amp;&lt;br&gt;Smoothness" style="rounded=1;whiteSpace=wrap;html=1;" parent="1" vertex="1"><mxGeometry x="20" y="230" width="120" height="60" as="geometry"/></mxCell><mxCell id="qTOa6XwQqx_HcVTNTbXX-14" style="edgeStyle=orthogonalEdgeStyle;rounded=0;orthogonalLoop=1;jettySize=auto;html=1;entryX=1;entryY=0.5;entryDx=0;entryDy=0;exitX=0.5;exitY=0;exitDx=0;exitDy=0;" parent="1" source="qTOa6XwQqx_HcVTNTbXX-10" target="qTOa6XwQqx_HcVTNTbXX-3" edge="1"><mxGeometry relative="1" as="geometry"><Array as="points"><mxPoint x="640" y="100"/></Array></mxGeometry></mxCell><mxCell id="qTOa6XwQqx_HcVTNTbXX-10" value="Weights" style="rounded=0;whiteSpace=wrap;html=1;" parent="1" vertex="1"><mxGeometry x="580" y="160" width="120" height="60" as="geometry"/></mxCell><mxCell id="qTOa6XwQqx_HcVTNTbXX-13" style="edgeStyle=orthogonalEdgeStyle;rounded=0;orthogonalLoop=1;jettySize=auto;html=1;" parent="1" source="qTOa6XwQqx_HcVTNTbXX-11" target="qTOa6XwQqx_HcVTNTbXX-10" edge="1"><mxGeometry relative="1" as="geometry"/></mxCell><mxCell id="qTOa6XwQqx_HcVTNTbXX-11" value="Visibility" style="rounded=0;whiteSpace=wrap;html=1;" parent="1" vertex="1"><mxGeometry x="430" y="300" width="120" height="60" as="geometry"/></mxCell><mxCell id="2" value="Jupyter Code" style="rounded=0;whiteSpace=wrap;html=1;" parent="1" vertex="1"><mxGeometry x="90" y="400" width="120" height="60" as="geometry"/></mxCell><mxCell id="3" value="Tables" style="rounded=0;whiteSpace=wrap;html=1;" parent="1" vertex="1"><mxGeometry x="250" y="550" width="120" height="60" as="geometry"/></mxCell><mxCell id="4" value="Drawio" style="rounded=0;whiteSpace=wrap;html=1;" parent="1" vertex="1"><mxGeometry x="250" y="500" width="120" height="60" as="geometry"/></mxCell><mxCell id="5" value="Brain Dump" style="rounded=0;whiteSpace=wrap;html=1;" parent="1" vertex="1"><mxGeometry x="250" y="400" width="120" height="60" as="geometry"/></mxCell><mxCell id="6" value="Schedule or what you want to do?" style="rounded=0;whiteSpace=wrap;html=1;" parent="1" vertex="1"><mxGeometry x="340" y="400" width="120" height="60" as="geometry"/></mxCell><mxCell id="7" value="Table" style="shape=table;startSize=30;container=1;collapsible=0;childLayout=tableLayout;" vertex="1" parent="1"><mxGeometry x="-360" y="50" width="300" height="450" as="geometry"/></mxCell><mxCell id="8" value="" style="shape=tableRow;horizontal=0;startSize=0;swimlaneHead=0;swimlaneBody=0;top=0;left=0;bottom=0;right=0;collapsible=0;dropTarget=0;fillColor=none;points=[[0,0.5],[1,0.5]];portConstraint=eastwest;" vertex="1" parent="7"><mxGeometry y="30" width="300" height="40" as="geometry"/></mxCell><mxCell id="9" value="Model" style="shape=partialRectangle;html=1;whiteSpace=wrap;connectable=0;overflow=hidden;fillColor=none;top=0;left=0;bottom=0;right=0;pointerEvents=1;" vertex="1" parent="8"><mxGeometry width="60" height="40" as="geometry"><mxRectangle width="60" height="40" as="alternateBounds"/></mxGeometry></mxCell><mxCell id="10" value="Data" style="shape=partialRectangle;html=1;whiteSpace=wrap;connectable=0;overflow=hidden;fillColor=none;top=0;left=0;bottom=0;right=0;pointerEvents=1;" vertex="1" parent="8"><mxGeometry x="60" width="60" height="40" as="geometry"><mxRectangle width="60" height="40" as="alternateBounds"/></mxGeometry></mxCell><mxCell id="11" value="$$IoU$$" style="shape=partialRectangle;html=1;whiteSpace=wrap;connectable=0;overflow=hidden;fillColor=none;top=0;left=0;bottom=0;right=0;pointerEvents=1;" vertex="1" parent="8"><mxGeometry x="120" width="60" height="40" as="geometry"><mxRectangle width="60" height="40" as="alternateBounds"/></mxGeometry></mxCell><mxCell id="12" value="" style="shape=partialRectangle;html=1;whiteSpace=wrap;connectable=0;overflow=hidden;fillColor=none;top=0;left=0;bottom=0;right=0;pointerEvents=1;" vertex="1" parent="8"><mxGeometry x="180" width="60" height="40" as="geometry"><mxRectangle width="60" height="40" as="alternateBounds"/></mxGeometry></mxCell><mxCell id="13" value="" style="shape=partialRectangle;html=1;whiteSpace=wrap;connectable=0;overflow=hidden;fillColor=none;top=0;left=0;bottom=0;right=0;pointerEvents=1;" vertex="1" parent="8"><mxGeometry x="240" width="60" height="40" as="geometry"><mxRectangle width="60" height="40" as="alternateBounds"/></mxGeometry></mxCell><mxCell id="14" value="" style="shape=tableRow;horizontal=0;startSize=0;swimlaneHead=0;swimlaneBody=0;top=0;left=0;bottom=0;right=0;collapsible=0;dropTarget=0;fillColor=none;points=[[0,0.5],[1,0.5]];portConstraint=eastwest;" vertex="1" parent="7"><mxGeometry y="70" width="300" height="40" as="geometry"/></mxCell><mxCell id="15" value="" style="shape=partialRectangle;html=1;whiteSpace=wrap;connectable=0;overflow=hidden;fillColor=none;top=0;left=0;bottom=0;right=0;pointerEvents=1;" vertex="1" parent="14"><mxGeometry width="60" height="40" as="geometry"><mxRectangle width="60" height="40" as="alternateBounds"/></mxGeometry></mxCell><mxCell id="16" value="" style="shape=partialRectangle;html=1;whiteSpace=wrap;connectable=0;overflow=hidden;fillColor=none;top=0;left=0;bottom=0;right=0;pointerEvents=1;" vertex="1" parent="14"><mxGeometry x="60" width="60" height="40" as="geometry"><mxRectangle width="60" height="40" as="alternateBounds"/></mxGeometry></mxCell><mxCell id="17" value="" style="shape=partialRectangle;html=1;whiteSpace=wrap;connectable=0;overflow=hidden;fillColor=none;top=0;left=0;bottom=0;right=0;pointerEvents=1;" vertex="1" parent="14"><mxGeometry x="120" width="60" height="40" as="geometry"><mxRectangle width="60" height="40" as="alternateBounds"/></mxGeometry></mxCell><mxCell id="18" value="" style="shape=partialRectangle;html=1;whiteSpace=wrap;connectable=0;overflow=hidden;fillColor=none;top=0;left=0;bottom=0;right=0;pointerEvents=1;" vertex="1" parent="14"><mxGeometry x="180" width="60" height="40" as="geometry"><mxRectangle width="60" height="40" as="alternateBounds"/></mxGeometry></mxCell><mxCell id="19" value="" style="shape=partialRectangle;html=1;whiteSpace=wrap;connectable=0;overflow=hidden;fillColor=none;top=0;left=0;bottom=0;right=0;pointerEvents=1;" vertex="1" parent="14"><mxGeometry x="240" width="60" height="40" as="geometry"><mxRectangle width="60" height="40" as="alternateBounds"/></mxGeometry></mxCell><mxCell id="20" value="" style="shape=tableRow;horizontal=0;startSize=0;swimlaneHead=0;swimlaneBody=0;top=0;left=0;bottom=0;right=0;collapsible=0;dropTarget=0;fillColor=none;points=[[0,0.5],[1,0.5]];portConstraint=eastwest;" vertex="1" parent="7"><mxGeometry y="110" width="300" height="40" as="geometry"/></mxCell><mxCell id="21" value="" style="shape=partialRectangle;html=1;whiteSpace=wrap;connectable=0;overflow=hidden;fillColor=none;top=0;left=0;bottom=0;right=0;pointerEvents=1;" vertex="1" parent="20"><mxGeometry width="60" height="40" as="geometry"><mxRectangle width="60" height="40" as="alternateBounds"/></mxGeometry></mxCell><mxCell id="22" value="" style="shape=partialRectangle;html=1;whiteSpace=wrap;connectable=0;overflow=hidden;fillColor=none;top=0;left=0;bottom=0;right=0;pointerEvents=1;" vertex="1" parent="20"><mxGeometry x="60" width="60" height="40" as="geometry"><mxRectangle width="60" height="40" as="alternateBounds"/></mxGeometry></mxCell><mxCell id="23" value="" style="shape=partialRectangle;html=1;whiteSpace=wrap;connectable=0;overflow=hidden;fillColor=none;top=0;left=0;bottom=0;right=0;pointerEvents=1;" vertex="1" parent="20"><mxGeometry x="120" width="60" height="40" as="geometry"><mxRectangle width="60" height="40" as="alternateBounds"/></mxGeometry></mxCell><mxCell id="24" value="" style="shape=partialRectangle;html=1;whiteSpace=wrap;connectable=0;overflow=hidden;fillColor=none;top=0;left=0;bottom=0;right=0;pointerEvents=1;" vertex="1" parent="20"><mxGeometry x="180" width="60" height="40" as="geometry"><mxRectangle width="60" height="40" as="alternateBounds"/></mxGeometry></mxCell><mxCell id="25" value="" style="shape=partialRectangle;html=1;whiteSpace=wrap;connectable=0;overflow=hidden;fillColor=none;top=0;left=0;bottom=0;right=0;pointerEvents=1;" vertex="1" parent="20"><mxGeometry x="240" width="60" height="40" as="geometry"><mxRectangle width="60" height="40" as="alternateBounds"/></mxGeometry></mxCell><mxCell id="26" value="" style="shape=tableRow;horizontal=0;startSize=0;swimlaneHead=0;swimlaneBody=0;top=0;left=0;bottom=0;right=0;collapsible=0;dropTarget=0;fillColor=none;points=[[0,0.5],[1,0.5]];portConstraint=eastwest;" vertex="1" parent="7"><mxGeometry y="150" width="300" height="40" as="geometry"/></mxCell><mxCell id="27" value="" style="shape=partialRectangle;html=1;whiteSpace=wrap;connectable=0;overflow=hidden;fillColor=none;top=0;left=0;bottom=0;right=0;pointerEvents=1;" vertex="1" parent="26"><mxGeometry width="60" height="40" as="geometry"><mxRectangle width="60" height="40" as="alternateBounds"/></mxGeometry></mxCell><mxCell id="28" value="" style="shape=partialRectangle;html=1;whiteSpace=wrap;connectable=0;overflow=hidden;fillColor=none;top=0;left=0;bottom=0;right=0;pointerEvents=1;" vertex="1" parent="26"><mxGeometry x="60" width="60" height="40" as="geometry"><mxRectangle width="60" height="40" as="alternateBounds"/></mxGeometry></mxCell><mxCell id="29" value="" style="shape=partialRectangle;html=1;whiteSpace=wrap;connectable=0;overflow=hidden;fillColor=none;top=0;left=0;bottom=0;right=0;pointerEvents=1;" vertex="1" parent="26"><mxGeometry x="120" width="60" height="40" as="geometry"><mxRectangle width="60" height="40" as="alternateBounds"/></mxGeometry></mxCell><mxCell id="30" value="" style="shape=partialRectangle;html=1;whiteSpace=wrap;connectable=0;overflow=hidden;fillColor=none;top=0;left=0;bottom=0;right=0;pointerEvents=1;" vertex="1" parent="26"><mxGeometry x="180" width="60" height="40" as="geometry"><mxRectangle width="60" height="40" as="alternateBounds"/></mxGeometry></mxCell><mxCell id="31" value="" style="shape=partialRectangle;html=1;whiteSpace=wrap;connectable=0;overflow=hidden;fillColor=none;top=0;left=0;bottom=0;right=0;pointerEvents=1;" vertex="1" parent="26"><mxGeometry x="240" width="60" height="40" as="geometry"><mxRectangle width="60" height="40" as="alternateBounds"/></mxGeometry></mxCell><mxCell id="32" value="" style="shape=tableRow;horizontal=0;startSize=0;swimlaneHead=0;swimlaneBody=0;top=0;left=0;bottom=0;right=0;collapsible=0;dropTarget=0;fillColor=none;points=[[0,0.5],[1,0.5]];portConstraint=eastwest;" vertex="1" parent="7"><mxGeometry y="190" width="300" height="40" as="geometry"/></mxCell><mxCell id="33" value="" style="shape=partialRectangle;html=1;whiteSpace=wrap;connectable=0;overflow=hidden;fillColor=none;top=0;left=0;bottom=0;right=0;pointerEvents=1;" vertex="1" parent="32"><mxGeometry width="60" height="40" as="geometry"><mxRectangle width="60" height="40" as="alternateBounds"/></mxGeometry></mxCell><mxCell id="34" value="" style="shape=partialRectangle;html=1;whiteSpace=wrap;connectable=0;overflow=hidden;fillColor=none;top=0;left=0;bottom=0;right=0;pointerEvents=1;" vertex="1" parent="32"><mxGeometry x="60" width="60" height="40" as="geometry"><mxRectangle width="60" height="40" as="alternateBounds"/></mxGeometry></mxCell><mxCell id="35" value="" style="shape=partialRectangle;html=1;whiteSpace=wrap;connectable=0;overflow=hidden;fillColor=none;top=0;left=0;bottom=0;right=0;pointerEvents=1;" vertex="1" parent="32"><mxGeometry x="120" width="60" height="40" as="geometry"><mxRectangle width="60" height="40" as="alternateBounds"/></mxGeometry></mxCell><mxCell id="36" value="" style="shape=partialRectangle;html=1;whiteSpace=wrap;connectable=0;overflow=hidden;fillColor=none;top=0;left=0;bottom=0;right=0;pointerEvents=1;" vertex="1" parent="32"><mxGeometry x="180" width="60" height="40" as="geometry"><mxRectangle width="60" height="40" as="alternateBounds"/></mxGeometry></mxCell><mxCell id="37" value="" style="shape=partialRectangle;html=1;whiteSpace=wrap;connectable=0;overflow=hidden;fillColor=none;top=0;left=0;bottom=0;right=0;pointerEvents=1;" vertex="1" parent="32"><mxGeometry x="240" width="60" height="40" as="geometry"><mxRectangle width="60" height="40" as="alternateBounds"/></mxGeometry></mxCell><mxCell id="38" value="" style="shape=tableRow;horizontal=0;startSize=0;swimlaneHead=0;swimlaneBody=0;top=0;left=0;bottom=0;right=0;collapsible=0;dropTarget=0;fillColor=none;points=[[0,0.5],[1,0.5]];portConstraint=eastwest;" vertex="1" parent="7"><mxGeometry y="230" width="300" height="220" as="geometry"/></mxCell><mxCell id="39" value="" style="shape=partialRectangle;html=1;whiteSpace=wrap;connectable=0;overflow=hidden;fillColor=none;top=0;left=0;bottom=0;right=0;pointerEvents=1;" vertex="1" parent="38"><mxGeometry width="60" height="220" as="geometry"><mxRectangle width="60" height="220" as="alternateBounds"/></mxGeometry></mxCell><mxCell id="40" value="" style="shape=partialRectangle;html=1;whiteSpace=wrap;connectable=0;overflow=hidden;fillColor=none;top=0;left=0;bottom=0;right=0;pointerEvents=1;" vertex="1" parent="38"><mxGeometry x="60" width="60" height="220" as="geometry"><mxRectangle width="60" height="220" as="alternateBounds"/></mxGeometry></mxCell><mxCell id="41" value="" style="shape=partialRectangle;html=1;whiteSpace=wrap;connectable=0;overflow=hidden;fillColor=none;top=0;left=0;bottom=0;right=0;pointerEvents=1;" vertex="1" parent="38"><mxGeometry x="120" width="60" height="220" as="geometry"><mxRectangle width="60" height="220" as="alternateBounds"/></mxGeometry></mxCell><mxCell id="42" value="" style="shape=partialRectangle;html=1;whiteSpace=wrap;connectable=0;overflow=hidden;fillColor=none;top=0;left=0;bottom=0;right=0;pointerEvents=1;" vertex="1" parent="38"><mxGeometry x="180" width="60" height="220" as="geometry"><mxRectangle width="60" height="220" as="alternateBounds"/></mxGeometry></mxCell><mxCell id="43" value="" style="shape=partialRectangle;html=1;whiteSpace=wrap;connectable=0;overflow=hidden;fillColor=none;top=0;left=0;bottom=0;right=0;pointerEvents=1;" vertex="1" parent="38"><mxGeometry x="240" width="60" height="220" as="geometry"><mxRectangle width="60" height="220" as="alternateBounds"/></mxGeometry></mxCell></root></mxGraphModel></diagram></mxfile>